HIERARCHY
ROOT Hips
{
	OFFSET 0.000000 0.000000 0.000000
	CHANNELS 6 Xposition Yposition Zposition Xrotation Yrotation Zrotation
	JOINT LeftUpLeg_virtual
	{
		OFFSET 0.000000 0.000000 0.000000
		CHANNELS 3 Xrotation Yrotation Zrotation
		JOINT LeftUpLeg
		{
			OFFSET 11.394100 -6.187798 -0.413800
			CHANNELS 3 Xrotation Yrotation Zrotation
			JOINT LeftLeg
			{
				OFFSET 0.430247 -32.302673 3.732800
				CHANNELS 3 Xrotation Yrotation Zrotation
				JOINT LeftFoot
				{
					OFFSET -0.430247 -48.264931 -6.423300
					CHANNELS 3 Xrotation Yrotation Zrotation
					JOINT LeftToeBase
					{
						OFFSET 4.230900 -16.068199 23.438400
						CHANNELS 3 Xrotation Yrotation Zrotation
						JOINT LeftToe_End
						{
							OFFSET 4.510700 0.695400 19.974600
							CHANNELS 3 Xrotation Yrotation Zrotation
							End Site
							{
								OFFSET 0 0 0
							}
						}
					}
				}
			}
		}
	}
	JOINT RightUpLeg_virtual
	{
		OFFSET 0.000000 0.000000 0.000000
		CHANNELS 3 Xrotation Yrotation Zrotation
		JOINT RightUpLeg
		{
			OFFSET -11.333700 -6.187798 -0.413800
			CHANNELS 3 Xrotation Yrotation Zrotation
			JOINT RightLeg
			{
				OFFSET -0.430392 -32.302628 3.733000
				CHANNELS 3 Xrotation Yrotation Zrotation
				JOINT RightFoot
				{
					OFFSET 0.430392 -48.264973 -6.423500
					CHANNELS 3 Xrotation Yrotation Zrotation
					JOINT RightToeBase
					{
						OFFSET -4.230900 -16.068199 23.438400
						CHANNELS 3 Xrotation Yrotation Zrotation
						JOINT RightToe_End
						{
							OFFSET -4.510700 0.695400 19.974600
							CHANNELS 3 Xrotation Yrotation Zrotation
							End Site
							{
								OFFSET 0 0 0
							}
						}
					}
				}
			}
		}
	}
	JOINT Spine_virtual
	{
		OFFSET 0.000000 0.000000 0.000000
		CHANNELS 3 Xrotation Yrotation Zrotation
		JOINT Spine
		{
			OFFSET -0.002400 12.777504 0.315300
			CHANNELS 3 Xrotation Yrotation Zrotation
			JOINT Spine1
			{
				OFFSET -0.002067 5.816869 0.032633
				CHANNELS 3 Xrotation Yrotation Zrotation
				JOINT Spine1_split
				{
					OFFSET -0.002067 5.816869 0.032633
					CHANNELS 3 Xrotation Yrotation Zrotation
					JOINT Spine2
					{
						OFFSET -0.002067 5.816869 0.032633
						CHANNELS 3 Xrotation Yrotation Zrotation
						JOINT Neck_virtual
						{
							OFFSET 0.000000 0.000000 0.000000
							CHANNELS 3 Xrotation Yrotation Zrotation
							JOINT Neck
							{
								OFFSET -0.003700 21.199493 -0.826900
								CHANNELS 3 Xrotation Yrotation Zrotation
								JOINT Head
								{
									OFFSET 0.000000 20.442200 4.834800
									CHANNELS 3 Xrotation Yrotation Zrotation
									JOINT HeadTop_End
									{
										OFFSET 0.000000 34.668396 4.968400
										CHANNELS 3 Xrotation Yrotation Zrotation
										End Site
										{
											OFFSET 0 0 0
										}
									}
								}
							}
						}
						JOINT LeftShoulder_virtual
						{
							OFFSET 0.000000 0.000000 0.000000
							CHANNELS 3 Xrotation Yrotation Zrotation
							JOINT LeftShoulder
							{
								OFFSET 3.288150 8.794197 -1.372250
								CHANNELS 3 Xrotation Yrotation Zrotation
								JOINT LeftShoulder_split
								{
									OFFSET 3.288150 8.794197 -1.372250
									CHANNELS 3 Xrotation Yrotation Zrotation
									JOINT LeftArm
									{
										OFFSET 11.953299 -2.279007 -0.146200
										CHANNELS 3 Xrotation Yrotation Zrotation
										JOINT LeftForeArm
										{
											OFFSET 18.448900 0.000000 0.000000
											CHANNELS 3 Xrotation Yrotation Zrotation
											JOINT LeftHand
											{
												OFFSET 29.527798 0.000000 0.000000
												CHANNELS 3 Xrotation Yrotation Zrotation
												End Site
												{
													OFFSET 0 0 0
												}
											}
										}
									}
								}
							}
						}
						JOINT RightShoulder_virtual
						{
							OFFSET 0.000000 0.000000 0.000000
							CHANNELS 3 Xrotation Yrotation Zrotation
							JOINT RightShoulder
							{
								OFFSET -3.249400 8.794197 -1.372250
								CHANNELS 3 Xrotation Yrotation Zrotation
								JOINT RightShoulder_split
								{
									OFFSET -3.249400 8.794197 -1.372250
									CHANNELS 3 Xrotation Yrotation Zrotation
									JOINT RightArm
									{
										OFFSET -11.953299 -2.279007 -0.146200
										CHANNELS 3 Xrotation Yrotation Zrotation
										JOINT RightForeArm
										{
											OFFSET -18.448900 0.000000 0.000000
											CHANNELS 3 Xrotation Yrotation Zrotation
											JOINT RightHand
											{
												OFFSET -29.527802 0.000000 0.000000
												CHANNELS 3 Xrotation Yrotation Zrotation
												End Site
												{
													OFFSET 0 0 0
												}
											}
										}
									}
								}
							}
						}
					}
				}
			}
		}
	}
}
MOTION
Frames: 7
Frame Time: 0.03333333
0.702026 97.050003 -10.211018 0.000000 0.000000 0.000000 4.835185 34.981630 0.611813 -42.979245 -10.943908 -0.778093 21.459382 12.112920 0.366459 15.087490 -1.425694 -7.866791 6.888696 -5.245518 4.922814 0.000000 0.000000 0.000000 5.866733 31.730327 0.263228 11.058642 -26.336263 2.715551 14.108360 0.053663 0.501259 -34.217779 -18.989002 0.615792 1.057909 12.678245 -3.170501 0.000000 0.000000 0.000000 6.063320 36.785097 -0.913035 4.700849 1.239569 -1.134756 1.028319 1.800036 1.230903 0.054419 0.113096 -0.037898 0.000000 0.000000 0.000000 2.046025 3.546956 1.740595 -9.447645 9.159119 -5.502120 -19.836324 -15.940007 -5.329822 0.000000 0.000000 0.000000 0.329262 2.397138 1.226413 0.018783 4.254876 4.162698 5.769409 -1.865179 1.507394 -81.606581 7.201881 -32.650927 2.808445 -59.394622 5.851322 0.000000 0.000000 0.000000 1.758976 2.714642 2.060285 0.957732 4.932962 5.210380 -3.327373 -0.611910 -0.133121 5.854944 6.998452 70.504764 5.137481 24.735025 -4.819461 0.000000 0.000000 0.000000 
0.343054 97.151169 -10.169384 0.000000 0.000000 0.000000 5.432630 32.813523 0.173582 -42.268359 -10.760659 0.627511 22.084539 11.812895 -0.107844 13.718300 0.003961 -8.302251 6.910453 -5.484814 5.234721 0.000000 0.000000 0.000000 6.400610 29.800679 -0.101384 8.976001 -24.785127 1.852507 15.194038 0.249370 0.472680 -33.589706 -18.649454 1.343051 1.112198 12.651261 -2.688817 0.000000 0.000000 0.000000 6.562902 34.751292 -1.288890 4.547974 1.361115 -1.354651 1.219793 1.754510 1.379185 0.059126 0.110921 -0.037090 0.000000 0.000000 0.000000 2.135944 3.547126 1.850169 -9.007032 8.370608 -4.398484 -19.708569 -16.142961 -5.175034 0.000000 0.000000 0.000000 0.533468 2.310564 1.448576 -0.023510 3.604855 4.179766 5.789066 -1.784228 1.323302 -81.601096 7.326755 -34.214982 2.687777 -61.608552 5.568881 0.000000 0.000000 0.000000 1.785147 2.606514 2.214654 1.187887 5.255204 5.080320 -3.624664 -0.741111 -0.121427 5.675798 7.322460 70.872502 4.750578 25.911386 -4.919340 0.000000 0.000000 0.000000 
-0.006586 97.232063 -10.153381 0.000000 0.000000 0.000000 6.136677 30.527558 -0.289666 -41.538673 -10.577174 2.122583 22.639721 11.513664 -0.547149 12.228736 1.508839 -8.838219 6.892738 -5.735989 5.522468 0.000000 0.000000 0.000000 7.005917 27.666477 -0.476158 6.736741 -23.101592 1.025422 16.318917 0.434790 0.428598 -32.948822 -18.264831 2.043086 1.311196 12.629886 -2.291650 0.000000 0.000000 0.000000 7.176143 32.538922 -1.673824 4.372049 1.412128 -1.566793 1.428864 1.716323 1.495602 0.063962 0.124984 -0.038719 0.000000 0.000000 0.000000 2.279433 3.563964 1.932259 -8.903224 7.525641 -3.170414 -19.806736 -16.487696 -4.968819 0.000000 0.000000 0.000000 0.772845 2.257929 1.643412 -0.076365 2.943797 4.173174 5.827505 -1.884011 1.150182 -81.499518 7.285287 -36.048547 2.822937 -63.831977 5.549639 0.000000 0.000000 0.000000 1.845970 2.509660 2.327992 1.392496 5.561487 4.991816 -3.938798 -0.885589 -0.130143 5.489752 7.754969 71.216552 4.402358 27.101171 -4.943796 0.000000 0.000000 0.000000 
-0.327967 97.299065 -10.168938 0.000000 0.000000 0.000000 6.909386 27.959967 -0.756603 -40.855565 -10.357765 3.742787 23.324864 11.157424 -0.958077 10.884145 3.020756 -9.579834 6.778586 -6.003843 5.751918 0.000000 0.000000 0.000000 7.683373 25.232862 -0.863312 4.317666 -21.319317 0.258436 17.461107 0.606933 0.374906 -32.182113 -17.809472 2.758135 1.645308 12.610538 -2.037359 0.000000 0.000000 0.000000 7.894884 30.085822 -2.062403 4.175875 1.397353 -1.756785 1.635927 1.687609 1.562601 0.064768 0.159383 -0.038687 0.000000 0.000000 0.000000 2.467913 3.594156 1.970364 -9.137891 6.570773 -1.772800 -20.056490 -17.104570 -4.650029 0.000000 0.000000 0.000000 1.030675 2.239527 1.791108 -0.138662 2.299309 4.139280 5.903727 -2.166786 1.049796 -81.313388 7.035877 -38.080350 3.092379 -65.835551 5.707502 0.000000 0.000000 0.000000 1.930676 2.427331 2.385235 1.559653 5.851475 4.968518 -4.222681 -0.998216 -0.145325 5.268460 8.373301 71.485498 4.105561 28.210650 -4.880424 0.000000 0.000000 0.000000 
-0.606945 97.357239 -10.196358 0.000000 0.000000 0.000000 7.722347 24.944894 -1.191164 -40.214538 -10.015060 5.487020 24.308435 10.746936 -1.314264 9.653108 4.613567 -10.457663 6.764528 -6.283810 5.838089 0.000000 0.000000 0.000000 8.423162 22.447555 -1.241274 1.676669 -19.464861 -0.467010 18.571368 0.806935 0.326170 -31.119742 -17.224243 3.596301 2.025810 12.582825 -1.954638 0.000000 0.000000 0.000000 8.671583 27.294710 -2.434768 3.962152 1.333653 -1.909597 1.842013 1.673908 1.568094 0.064482 0.199465 -0.032731 0.000000 0.000000 0.000000 2.692347 3.634437 1.950730 -9.669011 5.481782 -0.174372 -20.387785 -18.028226 -4.209858 0.000000 0.000000 0.000000 1.307676 2.242687 1.873778 -0.206267 1.666670 4.064892 5.939875 -2.577897 0.985877 -81.068717 6.566061 -40.156007 3.319848 -67.349722 5.882678 0.000000 0.000000 0.000000 2.028833 2.362307 2.381368 1.675467 6.113226 5.026240 -4.477488 -1.115937 -0.182859 4.976979 9.191144 71.614875 3.859652 29.100540 -4.727794 0.000000 0.000000 0.000000 
-0.836576 97.398216 -10.235092 0.000000 0.000000 0.000000 8.532658 21.415631 -1.548260 -39.416636 -9.392726 7.313469 25.450595 10.389280 -1.590388 8.113017 6.377331 -11.235791 7.044156 -6.566476 5.730485 0.000000 0.000000 0.000000 9.190123 19.191314 -1.556070 -1.225267 -17.534470 -1.177867 19.605457 1.078304 0.284140 -29.622954 -16.457559 4.627854 2.349250 12.524613 -2.044894 0.000000 0.000000 0.000000 9.438032 24.064785 -2.750250 3.733854 1.238669 -2.014718 2.044426 1.678597 1.506789 0.078696 0.236849 -0.036768 0.000000 0.000000 0.000000 2.946054 3.683987 1.869118 -10.393557 4.243571 1.628677 -20.703944 -19.275695 -3.686299 0.000000 0.000000 0.000000 1.599932 2.260685 1.884610 -0.272046 1.049262 3.918496 5.967919 -3.072972 1.024140 -80.803016 5.914890 -42.105722 3.295475 -68.130085 5.884531 0.000000 0.000000 0.000000 2.138820 2.314861 2.314050 1.735551 6.332382 5.157052 -4.707075 -1.227260 -0.199148 4.561255 10.150469 71.533282 3.658747 29.675475 -4.487974 0.000000 0.000000 0.000000 
-1.008919 97.415009 -10.302971 0.000000 0.000000 0.000000 9.284213 17.388970 -1.786306 -38.322327 -8.376811 9.198732 26.495646 10.006715 -1.759008 6.053469 8.209181 -11.938529 7.400420 -6.855829 5.520183 0.000000 0.000000 0.000000 9.908072 15.461199 -1.760216 -4.388229 -15.501051 -1.876133 20.555924 1.434898 0.252482 -27.655571 -15.467959 5.792923 2.633425 12.395205 -2.295801 0.000000 0.000000 0.000000 10.135745 20.377569 -2.963940 3.497747 1.123939 -2.069181 2.240959 1.695286 1.379105 0.103152 0.255851 -0.045399 0.000000 0.000000 0.000000 3.226910 3.734150 1.727321 -11.197568 2.867299 3.616430 -20.960073 -20.716819 -3.152104 0.000000 0.000000 0.000000 1.910357 2.280915 1.825303 -0.338128 0.483915 3.676977 5.926907 -3.618361 1.150452 -80.488261 5.137175 -43.780976 2.891948 -68.224048 5.581655 0.000000 0.000000 0.000000 2.269170 2.274419 2.177705 1.747227 6.490813 5.336044 -4.921665 -1.346427 -0.176181 4.015811 11.143698 71.237971 3.492757 29.922188 -4.174008 0.000000 0.000000 0.000000 
